<svg xmlns="http://www.w3.org/2000/svg" width="400" height="400" viewBox="0 0 400 400">
  <g fill="none" stroke="rgba(255,255,255,0.04)" stroke-width="0.8">
    <path d="M-20,120 C30,100 80,140 130,110 S230,80 280,120 S380,100 420,130"/>
    <path d="M-20,90 C40,70 90,110 140,80 S240,50 290,90 S390,70 420,100"/>
    <path d="M-20,160 C20,140 70,180 120,150 S220,120 270,160 S370,140 420,170"/>
    <path d="M-20,200 C30,180 80,220 130,190 S230,160 280,200 S380,180 420,210"/>
    <path d="M-20,240 C40,220 90,260 140,230 S240,200 290,240 S390,220 420,250"/>
    <path d="M-20,280 C20,260 70,300 120,270 S220,240 270,280 S370,260 420,290"/>
    <path d="M-20,320 C30,300 80,340 130,310 S230,280 280,320 S380,300 420,330"/>
    <path d="M-20,360 C40,340 90,380 140,350 S240,320 290,360 S390,340 420,370"/>
    <path d="M-20,50 C30,30 80,70 130,40 S230,10 280,50 S380,30 420,60"/>
    <path d="M-20,20 C40,0 90,40 140,10 S240,-20 290,20 S390,0 420,30"/>
    <path d="M-20,390 C20,370 70,410 120,380 S220,350 270,390 S370,370 420,400"/>
    <!-- Second layer offset -->
    <path d="M-20,105 C50,85 100,125 150,95 S250,65 300,105 S400,85 420,115" stroke="rgba(255,255,255,0.03)"/>
    <path d="M-20,145 C35,125 85,165 135,135 S235,105 285,145 S385,125 420,155" stroke="rgba(255,255,255,0.03)"/>
    <path d="M-20,185 C50,165 100,205 150,175 S250,145 300,185 S400,165 420,195" stroke="rgba(255,255,255,0.03)"/>
    <path d="M-20,225 C35,205 85,245 135,215 S235,185 285,225 S385,205 420,235" stroke="rgba(255,255,255,0.03)"/>
    <path d="M-20,265 C50,245 100,285 150,255 S250,225 300,265 S400,245 420,275" stroke="rgba(255,255,255,0.03)"/>
    <path d="M-20,305 C35,285 85,325 135,295 S235,265 285,305 S385,285 420,315" stroke="rgba(255,255,255,0.03)"/>
    <path d="M-20,345 C50,325 100,365 150,335 S250,305 300,345 S400,325 420,355" stroke="rgba(255,255,255,0.03)"/>
    <path d="M-20,65 C35,45 85,85 135,55 S235,25 285,65 S385,45 420,75" stroke="rgba(255,255,255,0.03)"/>
    <!-- Closed contours -->
    <ellipse cx="100" cy="180" rx="45" ry="25" transform="rotate(-15 100 180)" stroke="rgba(255,255,255,0.035)"/>
    <ellipse cx="100" cy="180" rx="65" ry="40" transform="rotate(-15 100 180)" stroke="rgba(255,255,255,0.025)"/>
    <ellipse cx="300" cy="100" rx="35" ry="20" transform="rotate(10 300 100)" stroke="rgba(255,255,255,0.035)"/>
    <ellipse cx="300" cy="100" rx="55" ry="35" transform="rotate(10 300 100)" stroke="rgba(255,255,255,0.025)"/>
    <ellipse cx="200" cy="320" rx="40" ry="22" transform="rotate(-8 200 320)" stroke="rgba(255,255,255,0.035)"/>
    <ellipse cx="200" cy="320" rx="60" ry="38" transform="rotate(-8 200 320)" stroke="rgba(255,255,255,0.025)"/>
  </g>
</svg>
